<svg xmlns="http://www.w3.org/2000/svg" viewBox="0 0 1440 320">
  <path fill="#856EF7" fill-opacity="1"
    d="M0,64L60,74.7C120,85,240,107,360,101.3C480,96,600,64,720,48C840,32,960,32,1080,42.7C1200,53,1320,75,1380,85.3L1440,96L1440,320L1380,320C1320,320,1200,320,1080,320C960,320,840,320,720,320C600,320,480,320,360,320C240,320,120,320,60,320L0,320Z">
    <animate attributeName="d" dur="10s" repeatCount="indefinite" keyTimes="0;0.5;1"
      values="M0,64L60,74.7C120,85,240,107,360,101.3C480,96,600,64,720,48C840,32,960,32,1080,42.7C1200,53,1320,75,1380,85.3L1440,96L1440,320L1380,320C1320,320,1200,320,1080,320C960,320,840,320,720,320C600,320,480,320,360,320C240,320,120,320,60,320L0,320Z; M0,74L60,61.3C120,48,240,22,360,31.3C480,42,600,86,720,90.7C840,96,960,62,1080,48C1200,34,1320,42,1380,46.7L1440,53L1440,320L1380,320C1320,320,1200,320,1080,320C960,320,840,320,720,320C600,320,480,320,360,320C240,320,120,320,60,320L0,320Z; M0,64L60,74.7C120,85,240,107,360,101.3C480,96,600,64,720,48C840,32,960,32,1080,42.7C1200,53,1320,75,1380,85.3L1440,96L1440,320L1380,320C1320,320,1200,320,1080,320C960,320,840,320,720,320C600,320,480,320,360,320C240,320,120,320,60,320L0,320Z" />
  </path>
</svg>